Coordinates
version=1
nRows=26
nColumns=24
inDegrees=yes

Units are S.I. units (second, meters, Newtons, ...)
Angles are in degrees.

endheader
time	pelvis_tilt	pelvis_list	pelvis_rotation	pelvis_tx	pelvis_ty	pelvis_tz	hip_flexion_r	hip_adduction_r	hip_rotation_r	knee_angle_r	ankle_angle_r	subtalar_angle_r	mtp_angle_r	hip_flexion_l	hip_adduction_l	hip_rotation_l	knee_angle_l	ankle_angle_l	subtalar_angle_l	mtp_angle_l	lumbar_extension	lumbar_bending	lumbar_rotation
      1.14150000	      0.03492507	      6.16557795	      0.66964458	      0.12874216	      0.99611199	      0.28771576	     22.15876397	     -7.02697838	     -2.20915392	    -71.23819220	      0.75575188	    -11.50935157	     -3.55685673	      6.38145695	     11.37034601	      4.52900758	    -10.16689079	      2.71706684	    -12.66805386	      0.00854600	     -2.84085459	     -4.24798556	      2.31367364
      1.14566667	      0.06317206	      6.01999531	      0.68415913	      0.13385687	      0.99687126	      0.28765424	     22.64045958	     -6.82080881	     -2.12558570	    -70.85428851	      1.45359911	    -11.73439516	     -3.57652595	      5.81070680	     11.20807455	      4.67249269	     -9.77346686	      2.75367071	    -12.72012637	     -0.00556541	     -2.88376941	     -4.08191452	      2.26206337
      1.14983333	      0.13201050	      5.90194767	      0.69148278	      0.13892973	      0.99763438	      0.28757682	     23.07129087	     -6.64763859	     -2.03132326	    -70.42579107	      2.13493410	    -12.02129626	     -3.64437461	      5.17192257	     11.08237202	      4.91864733	     -9.32582933	      2.74884908	    -12.90153907	     -0.04482267	     -3.01594650	     -3.93898496	      2.17306614
      1.15400000	      0.11901340	      5.73445969	      0.71430374	      0.14399652	      0.99825921	      0.28751588	     23.56321120	     -6.41940722	     -1.95810380	    -69.91820435	      2.81557196	    -12.14433226	     -3.66567708	      4.67711411	     10.89452072	      5.04901352	     -8.98590085	      2.79336960	    -12.92972825	     -0.06178960	     -3.02808032	     -3.71837698	      2.13432170
      1.15816667	      0.18977806	      5.61528141	      0.72454938	      0.14906987	      0.99894358	      0.28744537	     23.95047751	     -6.24997199	     -1.87320284	    -69.36678439	      3.50099546	    -12.33083615	     -3.73947913	      4.05073504	     10.76336972	      5.27949115	     -8.56389202	      2.81099223	    -13.08561338	     -0.10749230	     -3.16051443	     -3.57415551	      2.04912746
      1.16233333	      0.17699164	      5.45112869	      0.75151419	      0.15411326	      0.99947685	      0.28739909	     24.40365753	     -6.02732525	     -1.80446918	    -68.73948381	      4.15595258	    -12.42092368	     -3.76862986	      3.56792892	     10.57700586	      5.41804993	     -8.24313401	      2.86543930	    -13.12947225	     -0.12990602	     -3.17886247	     -3.37805266	      2.00752649
      1.16650000	      0.23483354	      5.32760967	      0.76887863	      0.15917869	      1.00006682	      0.28733794	     24.76181508	     -5.85679532	     -1.73170220	    -68.06320939	      4.80439822	    -12.54700032	     -3.85218260	      2.96563752	     10.43790189	      5.64322844	     -7.83539403	      2.89035210	    -13.29075140	     -0.18402839	     -3.28786750	     -3.22452714	      1.91830370
      1.17066667	      0.26499816	      5.17701052	      0.79374555	      0.16422906	      1.00057577	      0.28729191	     25.12556174	     -5.65579728	     -1.67228628	    -67.31865055	      5.42814983	    -12.61728683	     -3.93469927	      2.42110820	     10.26537952	      5.83011178	     -7.48185084	      2.93548446	    -13.40400150	     -0.23835643	     -3.36124443	     -3.03920669	      1.85070239
      1.17483333	      0.28272174	      5.03842130	      0.81780740	      0.16927022	      1.00101933	      0.28725290	     25.48648020	     -5.46878970	     -1.60778268	    -66.52256946	      6.02196565	    -12.68238654	     -4.01367138	      1.89812689	     10.10440961	      6.00183035	     -7.14094339	      2.99108622	    -13.50478342	     -0.29027513	     -3.41953024	     -2.87097175	      1.78616830
      1.17900000	      0.25011491	      4.88687724	      0.85067843	      0.17427871	      1.00134610	      0.28722784	     25.88202449	     -5.26397719	     -1.54436036	    -65.66535964	      6.57551576	    -12.72452332	     -4.04946159	      1.46018712	      9.92669442	      6.13503997	     -6.85641371	      3.06865137	    -13.54547293	     -0.31627584	     -3.41813781	     -2.68819466	      1.74458022
      1.18316667	      0.26411512	      4.75369086	      0.87977675	      0.17930635	      1.00169637	      0.28720859	     26.20461397	     -5.08365079	     -1.48504938	    -64.75613175	      7.12120680	    -12.78515758	     -4.09542483	      0.95507443	      9.76752215	      6.29504791	     -6.54088259	      3.14557689	    -13.61834378	     -0.34809033	     -3.47221133	     -2.52881144	      1.68102424
      1.18733333	      0.30857111	      4.64740381	      0.89858212	      0.18433823	      1.00200943	      0.28718704	     26.48328129	     -4.93938524	     -1.42634787	    -63.81181294	      7.61238028	    -12.84570949	     -4.19321960	      0.38911062	      9.63735801	      6.50333796	     -6.16667730	      3.19175311	    -13.77843005	     -0.41118200	     -3.57983377	     -2.39921881	      1.58041501
      1.19150000	      0.25342234	      4.52190124	      0.93106398	      0.18933257	      1.00214079	      0.28717190	     26.85003447	     -4.76950488	     -1.36452901	    -62.80828386	      8.07139582	    -12.87711482	     -4.23476929	     -0.01133655	      9.48576946	      6.62665121	     -5.90548657	      3.28814512	    -13.82140577	     -0.43894406	     -3.55367159	     -2.24528639	      1.54120604
      1.19566667	      0.24641901	      4.40554626	      0.96312217	      0.19433091	      1.00230292	      0.28716963	     27.13968600	     -4.61147738	     -1.30965434	    -61.74954999	      8.51114174	    -12.93436749	     -4.28336293	     -0.47627710	      9.34091843	      6.76795347	     -5.61900290	      3.38355442	    -13.88034760	     -0.47005960	     -3.58847541	     -2.10510901	      1.48164252
      1.19983333	      0.23479253	      4.29215181	      0.99269587	      0.19933705	      1.00242377	      0.28718317	     27.41494196	     -4.45919702	     -1.26308816	    -60.64161370	      8.88970592	    -12.99293317	     -4.33074025	     -0.94064817	      9.19622555	      6.90075384	     -5.32159187	      3.47974178	    -13.93171067	     -0.49929927	     -3.62971801	     -1.97687614	      1.41927015
      1.20400000	      0.23059758	      4.19311267	      1.02126678	      0.20433614	      1.00249222	      0.28719479	     27.66246159	     -4.32335359	     -1.21250725	    -59.48783408	      9.23060065	    -13.06223844	     -4.38410209	     -1.40717379	      9.06784863	      7.03728113	     -5.03745698	      3.57610728	    -13.99214786	     -0.53113682	     -3.66887616	     -1.85520996	      1.35105650
      1.20816667	      0.26820378	      4.12712512	      1.03403104	      0.20934325	      1.00255054	      0.28721439	     27.85472256	     -4.22429788	     -1.15365593	    -58.30452987	      9.49735786	    -13.16948990	     -4.49844734	     -1.94651522	      8.97352771	      7.20299500	     -4.69637425	      3.64742770	    -14.10487886	     -0.59658625	     -3.76659149	     -1.77929246	      1.24914863
      1.21233333	      0.19213616	      4.03874625	      1.06804636	      0.21432189	      1.00243277	      0.28723237	     28.14673984	     -4.10253398	     -1.10643540	    -57.06738355	      9.76142314	    -13.21016438	     -4.54827349	     -2.30986190	      8.85648545	      7.30038658	     -4.46081657	      3.76037487	    -14.12610843	     -0.62399810	     -3.72126436	     -1.66912603	      1.21355299
      1.21650000	      0.21446643	      3.97246122	      1.08307760	      0.21932355	      1.00238181	      0.28727807	     28.31456765	     -4.00539150	     -1.06208349	    -55.79560841	      9.93994130	    -13.33053679	     -4.66349364	     -2.81862902	      8.75759203	      7.43077969	     -4.14686584	      3.86133642	    -14.18231822	     -0.68635652	     -3.80917211	     -1.59871579	      1.12594069
      1.22066667	      0.14789379	      3.89984500	      1.11143738	      0.22430562	      1.00217324	      0.28731188	     28.56059581	     -3.90612460	     -1.02909102	    -54.48397888	     10.11951562	    -13.37331131	     -4.72285079	     -3.19276095	      8.65516187	      7.50914547	     -3.90862749	      3.98199276	    -14.19340193	     -0.71719812	     -3.77959427	     -1.51195993	      1.09063424
      1.22483333	      0.12394907	      3.82935542	      1.13348100	      0.22931302	      1.00200007	      0.28735816	     28.73255715	     -3.80886492	     -0.99965535	    -53.12101517	     10.22214950	    -13.45068385	     -4.79177911	     -3.62592912	      8.55191236	      7.59287504	     -3.64763133	      4.10220593	    -14.20147599	     -0.75150397	     -3.79721181	     -1.42278321	      1.03845340
      1.22900000	      0.09200634	      3.77772319	      1.14910676	      0.23431014	      1.00176348	      0.28741912	     28.90236953	     -3.73202213	     -0.97013774	    -51.73439690	     10.27243024	    -13.52959061	     -4.87055409	     -4.05211649	      8.46885278	      7.67113886	     -3.38161245	      4.21881420	    -14.20856837	     -0.79064433	     -3.81778356	     -1.36637897	      0.98241286
      1.23316667	      0.08511418	      3.74078640	      1.15201285	      0.23932212	      1.00150992	      0.28748611	     29.02820753	     -3.66812544	     -0.93301857	    -50.32051731	     10.26765965	    -13.64057663	     -5.00990596	     -4.51743130	      8.40137693	      7.75152852	     -3.09247486	      4.33145581	    -14.21943037	     -0.86282869	     -3.86632325	     -1.32702346	      0.91053940
      1.23733333	      0.01875937	      3.69768284	      1.16629973	      0.24432646	      1.00113051	      0.28754986	     29.20122759	     -3.60791930	     -0.92410453	    -48.87920289	     10.26995370	    -13.63332478	     -5.08231579	     -4.89026389	      8.32991479	      7.79146349	     -2.86045893	      4.46108360	    -14.21272432	     -0.89949367	     -3.84112813	     -1.27687018	      0.88374901
      1.24150000	     -0.02113565	      3.66495758	      1.17143563	      0.24934507	      1.00076271	      0.28762523	     29.32555734	     -3.55764700	     -0.91561434	    -47.40549475	     10.20428661	    -13.63701505	     -5.15810782	     -5.30146824	      8.26822910	      7.82891392	     -2.61071486	      4.58995670	    -14.19085186	     -0.93844548	     -3.84614863	     -1.23668463	      0.84722120
      1.24566667	     -0.07074831	      3.63232954	      1.17179348	      0.25438340	      1.00033944	      0.28770825	     29.44140206	     -3.50796787	     -0.91430001	    -45.90951509	     10.11623704	    -13.61403923	     -5.22615872	     -5.70297673	      8.20781289	      7.85095147	     -2.36200388	      4.72423692	    -14.16201921	     -0.97468501	     -3.83750689	     -1.19669941	      0.81474422
